#!OML:ASF I:\Random Stuff\random\construction\7_22_03\Session 2\subj1.ASF
:FULLY-SPECIFIED
:DEGREES
1263
root 4.70287 17.2657 -10.63 40.2604 -11.2529 -11.0382
lowerback 35.367 -0.795168 -6.69492
upperback 13.3699 -3.99028 -9.73064
thorax -3.40766 -1.83923 -5.38098
lowerneck -13.0014 -4.83054 -12.2138
upperneck 31.3994 -3.6422 0.701059
head 12.9978 -2.88817 1.83386
rclavicle 4.13472e-014 -1.9133e-014
rhumerus -26.7319 10.2171 -47.7134
rradius 128.637
rwrist 8.11148
rhand -22.4006 17.8904
rfingers 7.12502
rthumb 4.02193 -12.0514
lclavicle 4.13472e-014 -1.9133e-014
lhumerus 34.5067 -54.745 63.6548
lradius 85.4907
lwrist 93.8972
lhand -11.9031 46.7605
lfingers 7.12502
lthumb -165.85 1336.26
rfemur -54.9363 -5.01905 43.4413
rtibia 16.7337
rfoot -2.18483 8.50977
rtoes -11.8203
lfemur -60.14 6.53342 2.80284
ltibia 38.5899
lfoot -13.1415 4.71655
ltoes -31.9903
1264
root 4.70003 17.2695 -10.6285 40.2009 -11.2511 -10.9932
lowerback 35.3689 -0.810111 -6.69227
upperback 13.3941 -4.00741 -9.76323
thorax -3.38645 -1.84641 -5.41185
lowerneck -12.9528 -4.81605 -12.1972
upperneck 31.3921 -3.61724 0.651942
head 12.9814 -2.88124 1.81665
rclavicle 5.40694e-014 2.20154e-014
rhumerus -26.6957 10.0811 -47.7176
rradius 128.659
rwrist 6.6997
rhand -22.0102 17.4762
rfingers 7.12502
rthumb 4.39889 -12.4581
lclavicle 5.40694e-014 2.20154e-014
lhumerus 34.31 -54.6801 64.0328
lradius 85.3801
lwrist 93.7522
lhand -11.7965 46.8877
lfingers 7.12502
lthumb -165.747 1336.38
rfemur -54.852 -5.07009 43.3981
rtibia 16.6756
rfoot -2.17186 8.50083
rtoes -11.7245
lfemur -60.0537 6.42633 2.81382
ltibia 38.5478
lfoot -13.1354 4.80617
ltoes -32.2651
1265
root 4.69647 17.272 -10.6282 40.1667 -11.255 -10.9663
lowerback 35.3616 -0.82678 -6.71095
upperback 13.4047 -4.03367 -9.79633
thorax -3.37546 -1.85839 -5.42884
lowerneck -12.8831 -4.8095 -12.2357
upperneck 31.4106 -3.61414 0.674465
head 12.976 -2.88253 1.83353
rclavicle -9.54166e-015 -3.39922e-014
rhumerus -26.6606 9.72662 -47.6182
rradius 128.693
rwrist 6.42629
rhand -21.3636 17.2301
rfingers 7.12502
rthumb 5.02326 -12.6903
lclavicle -9.54166e-015 -3.39922e-014
lhumerus 34.1648 -54.6277 64.188
lradius 85.3384
lwrist 93.6844
lhand -11.7747 46.9685
lfingers 7.12502
lthumb -165.726 1336.46
rfemur -54.781 -5.0745 43.3573
rtibia 16.6067
rfoot -2.13876 8.48487
rtoes -11.5647
lfemur -60.0096 6.42952 2.77908
ltibia 38.5253
lfoot -13.1406 4.78062
ltoes -32.3291
1266
root 4.69308 17.2697 -10.63 40.201 -11.2192 -11.0228
lowerback 35.3196 -0.852458 -6.68423
upperback 13.4028 -4.05224 -9.80271
thorax -3.36731 -1.86693 -5.44349
lowerneck -12.8713 -4.80934 -12.2742
upperneck 31.4668 -3.60873 0.690192
head 12.9987 -2.88491 1.84707
rclavicle 4.77083e-014 4.47266e-016
rhumerus -26.622 9.23733 -47.4615
rradius 128.798
rwrist 6.92509
rhand -20.3087 17.0736
rfingers 7.12502
rthumb 6.04176 -12.8203
lclavicle 4.77083e-014 4.47266e-016
lhumerus 34.2217 -54.6038 64.0867
lradius 85.4216
lwrist 93.6424
lhand -11.9098 47.0144
lfingers 7.12502
lthumb -165.856 1336.51
rfemur -54.769 -5.05396 43.4574
rtibia 16.5391
rfoot -2.12505 8.51148
rtoes -11.7801
lfemur -60.0436 6.50078 2.83862
ltibia 38.5256
lfoot -13.1373 4.74975
ltoes -32.2855
1267
root 4.69123 17.2655 -10.6329 40.2465 -11.1382 -11.1094
lowerback 35.2986 -0.895568 -6.60996
upperback 13.3945 -4.07804 -9.78731
thorax -3.37631 -1.87785 -5.45656
lowerneck -12.892 -4.80154 -12.2391
upperneck 31.4903 -3.59505 0.661381
head 13.0102 -2.87972 1.83166
rclavicle -9.54166e-015 -9.88954e-015
rhumerus -26.6278 8.6956 -47.2701
rradius 128.915
rwrist 7.90049
rhand -19.134 17.4583
rfingers 7.12502
rthumb 7.17582 -12.4
lclavicle -9.54166e-015 -9.88954e-015
lhumerus 34.1637 -54.5509 64.0776
lradius 85.458
lwrist 93.4835
lhand -11.8732 47.0307
lfingers 7.12502
lthumb -165.821 1336.53
rfemur -54.778 -5.07385 43.6386
rtibia 16.4751
rfoot -2.14001 8.57324
rtoes -12.117
lfemur -60.1051 6.51338 2.98872
ltibia 38.5423
lfoot -13.1149 4.75772
ltoes -32.2937
